<svg t="1689075511366" class="icon" viewBox="0 0 1137 1024" version="1.1" xmlns="http://www.w3.org/2000/svg" p-id="8603" width="200" height="200"><path d="M1106.147556 49.493333c17.464889 0 31.630222 14.165333 31.630222 31.630223v608.768a31.630222 31.630222 0 0 1-31.630222 31.630222h-410.851556a31.630222 31.630222 0 0 0-31.630222 31.573333v224.824889a31.630222 31.630222 0 0 1-31.573334 31.573333H505.685333a31.630222 31.630222 0 0 1-31.630222-31.573333v-224.824889a31.630222 31.630222 0 0 0-31.573333-31.573333H31.630222A31.630222 31.630222 0 0 1 0 689.891556V81.123556C0 63.658667 14.165333 49.493333 31.630222 49.493333h63.146667A23.893333 23.893333 0 0 1 71.111111 25.486222a23.893333 23.893333 0 0 1 23.722667-24.007111h94.776889c13.084444 0 23.722667 10.808889 23.722666 24.007111a23.893333 23.893333 0 0 1-23.722666 24.007111h189.667555A23.893333 23.893333 0 0 1 355.555556 25.486222a23.893333 23.893333 0 0 1 23.722666-24.007111h94.776889c13.084444 0 23.722667 10.808889 23.722667 24.007111a23.893333 23.893333 0 0 1-23.722667 24.007111h189.610667a23.893333 23.893333 0 0 1-23.665778-24.007111 23.893333 23.893333 0 0 1 23.665778-24.007111h94.890666c13.084444 0 23.665778 10.808889 23.665778 24.007111a23.893333 23.893333 0 0 1-23.665778 24.007111h189.553778a23.893333 23.893333 0 0 1-23.665778-24.007111 23.893333 23.893333 0 0 1 23.665778-24.007111h94.890667c13.084444 0 23.665778 10.808889 23.665778 24.007111a23.893333 23.893333 0 0 1-23.665778 24.007111h63.146667zM392.760889 496.071111H568.888889L412.387556 224.028444l-89.713778 155.875556-47.217778-78.165333-117.418667 194.275555h234.780445z m263.054222-150.528h189.667556a23.893333 23.893333 0 0 0 23.665777-24.007111 23.893333 23.893333 0 0 0-23.665777-23.950222h-189.667556a23.836444 23.836444 0 0 0-23.665778 23.950222c0 13.255111 10.581333 24.007111 23.665778 24.007111z m-2.958222 96.028445h290.360889c11.434667 0 20.707556-10.808889 20.707555-24.007112 0-13.255111-9.272889-24.007111-20.707555-24.007111h-290.360889c-11.491556 0-20.707556 10.752-20.707556 24.007111 0 13.255111 9.216 24.007111 20.707556 24.007112z"  p-id="8604"></path></svg>