<svg t="1690272067564" class="icon" viewBox="0 0 1024 1024" version="1.1" xmlns="http://www.w3.org/2000/svg" p-id="4775" width="200" height="200"><path d="M825.8 282.1H195.9c-13.7 0-21.1-16-12.3-26.5l76-90.1c3.1-3.6 7.6-5.7 12.3-5.7h458.7c4.1 0 8.1 1.6 11.1 4.4l95.2 90.1c10.5 10 3.4 27.8-11.1 27.8zM849.1 352.6H176.4c-8.9 0-16.1 7.2-16.1 16.1v480.2c0 8.9 7.2 16.1 16.1 16.1h672.7c8.9 0 16.1-7.2 16.1-16.1V368.7c0-8.9-7.2-16.1-16.1-16.1zM622.8 643.3L522.3 743.7c-6.3 6.3-16.6 6.3-22.9 0L399 643.3c-10.2-10.2-3-27.6 11.4-27.6h65.2V492c0-8.9 7.2-16.2 16.2-16.2H530c8.9 0 16.2 7.2 16.2 16.2v123.7h65.2c14.3 0 21.6 17.4 11.4 27.6z"  p-id="4776"></path></svg>