<svg t="1689080683141" class="icon" viewBox="0 0 1352 1024" version="1.1" xmlns="http://www.w3.org/2000/svg" p-id="4404" width="200" height="200"><path d="M201.920401 665.6a53.76 53.76 0 0 0 75.52-76.8L134.080401 448l140.8-132.48a53.76 53.76 0 0 0-74.24-79.36L19.520401 407.68a53.76 53.76 0 0 0 0 78.08z m1094.4 248.96H58.560401a53.76 53.76 0 1 0 0 109.44h1237.76a53.76 53.76 0 1 0 0-108.16z m0-503.04H448.320401a53.76 53.76 0 1 0 0 108.16h844.8a53.76 53.76 0 1 0 0-108.16zM54.080401 108.16h1242.24a53.76 53.76 0 1 0 0-108.16H54.080401a53.76 53.76 0 1 0 0 108.16z"  p-id="4405"></path></svg>